{"glyphs":{":":{"x_min":0,"x_max":271,"ha":271,"o":"m 50 319 q 50 354 75 379 q 101 404 135 404 q 170 404 195 379 q 220 354 220 319 q 220 284 195 259 q 170 234 135 234 q 101 234 75 259 q 50 284 50 319 z m 50 72 q 50 107 75 132 q 101 157 135 157 q 170 157 195 132 q 220 107 220 72 q 220 37 195 12 q 170 -13 135 -13 q 101 -13 75 12 q 50 37 50 72 z"},"$":{"x_min":0,"x_max":490,"ha":490,"o":"m 306 596 l 306 369 q 460 326 460 183 q 460 39 306 0 l 306 -100 l 276 -100 l 276 -6 q 255 -8 241 -8 q 229 -8 217 -7 l 217 -100 l 187 -100 l 187 -6 q 105 8 63 52 q 22 95 22 145 q 22 177 41 196 q 59 214 90 214 q 117 214 135 196 q 153 177 153 152 q 153 128 138 112 q 124 95 105 90 q 87 85 87 77 q 87 65 112 49 q 138 33 187 25 l 187 258 q 36 307 36 437 q 36 574 187 620 l 187 671 l 217 671 l 217 625 q 249 629 276 627 l 276 671 l 306 671 l 306 625 q 382 613 419 574 q 457 536 457 495 q 457 467 441 448 q 426 428 397 428 q 372 428 357 444 q 342 459 342 483 q 342 525 384 536 q 399 539 399 547 q 399 558 374 573 q 349 588 306 596 z m 276 377 l 276 598 q 240 598 217 594 l 217 393 q 250 382 276 377 z m 187 402 l 187 589 q 99 559 99 490 q 99 426 187 402 z m 276 25 l 276 232 l 217 249 l 217 22 q 236 21 276 25 z m 306 223 l 306 29 q 355 42 379 71 q 403 100 403 133 q 403 202 306 223 z"},"?":{"x_min":0,"x_max":427,"ha":427,"o":"m 190 188 l 161 188 q 155 248 155 287 q 155 331 172 371 q 188 411 249 457 q 309 503 309 544 q 309 583 279 608 q 249 634 200 634 q 158 634 127 615 q 96 597 96 582 q 96 573 107 573 q 170 570 170 513 q 170 485 150 466 q 131 447 102 447 q 73 447 52 469 q 30 490 30 526 q 30 584 81 624 q 132 664 205 664 q 287 664 341 610 q 395 556 395 474 q 395 425 371 380 q 347 336 262 279 q 189 229 190 188 z m 102 65 q 102 97 125 120 q 148 143 180 143 q 212 143 235 120 q 258 98 258 65 q 258 33 235 10 q 212 -12 180 -12 q 148 -12 125 11 q 102 34 102 65 z"},"<":{"x_min":0,"x_max":667,"ha":667,"o":"m 603 62 l 64 287 l 64 369 l 603 594 l 603 497 l 187 328 l 603 160 z"},"'":{"x_min":0,"x_max":278,"ha":278,"o":"m 152 340 l 128 340 l 77 527 q 67 567 67 592 q 67 622 88 643 q 108 665 139 665 q 171 665 191 644 q 212 622 212 594 q 212 574 200 527 z"},"=":{"x_min":0,"x_max":667,"ha":667,"o":"m 64 490 l 603 490 l 603 400 l 64 400 z m 64 258 l 603 258 l 603 168 l 64 168 z"},"a":{"x_min":0,"x_max":490,"ha":490,"o":"m 275 224 l 275 312 q 275 348 266 362 q 257 377 221 377 q 192 377 176 368 q 160 360 160 351 q 160 345 172 333 q 183 322 183 304 q 183 279 164 260 q 145 242 116 242 q 90 242 71 260 q 52 277 52 302 q 52 345 103 375 q 154 405 244 405 q 314 405 361 387 q 408 370 408 308 l 408 102 q 408 49 438 49 q 446 49 461 58 l 474 36 q 433 -12 378 -12 q 321 -12 282 47 q 218 -12 140 -12 q 87 -12 57 15 q 27 43 27 84 q 27 214 275 224 z m 275 135 l 275 198 q 209 196 183 177 q 157 159 157 116 q 157 83 173 64 q 189 45 215 45 q 244 45 259 64 q 275 83 275 135 z"},"L":{"x_min":0,"x_max":594,"ha":594,"o":"m 563 0 l 13 0 l 13 32 l 102 32 l 102 623 l 13 623 l 13 655 l 360 655 l 360 623 l 262 623 l 262 32 l 324 32 q 376 32 401 38 q 425 43 455 69 q 485 95 506 135 q 527 174 543 222 l 573 222 z"},"3":{"x_min":0,"x_max":490,"ha":490,"o":"m 228 347 l 228 345 q 347 343 403 292 q 460 242 460 171 q 460 91 396 40 q 331 -12 224 -12 q 132 -12 81 29 q 31 70 31 123 q 31 158 53 180 q 76 201 108 201 q 138 201 159 182 q 180 164 180 133 q 180 92 131 64 q 121 59 121 52 q 121 39 149 30 q 176 20 205 20 q 300 20 300 176 q 300 330 186 330 l 123 327 q 104 327 104 343 q 104 361 124 361 l 170 359 q 240 359 264 394 q 288 429 288 493 q 288 560 270 591 q 252 622 208 622 q 184 622 163 613 q 142 604 142 595 q 142 587 156 578 q 192 552 192 522 q 192 492 172 475 q 151 457 126 457 q 97 457 74 477 q 51 497 51 527 q 51 578 102 615 q 153 652 233 652 q 321 652 382 610 q 443 568 443 503 q 443 374 228 347 z"},";":{"x_min":0,"x_max":271,"ha":271,"o":"m 50 319 q 50 354 75 379 q 101 404 135 404 q 170 404 195 379 q 220 354 220 319 q 220 284 195 259 q 170 234 135 234 q 101 234 75 259 q 50 284 50 319 z m 97 -179 l 81 -154 q 187 -83 187 -3 q 187 24 174 24 q 168 24 158 11 q 141 -12 108 -12 q 82 -12 62 9 q 42 31 42 63 q 42 98 65 122 q 89 146 123 146 q 165 146 197 110 q 229 74 229 17 q 229 -101 97 -179 z"},"J":{"x_min":0,"x_max":490,"ha":490,"o":"m 373 623 l 373 198 q 373 98 359 48 q 345 -2 292 -49 q 238 -96 158 -96 q 92 -96 55 -66 q 19 -35 19 3 q 19 30 38 53 q 57 75 89 75 q 117 75 136 57 q 156 38 156 9 q 156 -17 129 -50 q 129 -64 161 -64 q 213 -64 213 2 l 213 623 l 125 623 l 125 655 l 456 655 l 456 623 z"},"V":{"x_min":0,"x_max":646,"ha":646,"o":"m 398 221 l 510 552 q 524 588 524 601 q 524 623 478 623 l 433 623 l 433 655 l 635 655 l 635 623 l 613 623 q 582 623 573 614 q 565 605 551 565 l 352 -12 l 322 -12 l 68 623 l 13 623 l 13 655 l 308 655 l 308 623 l 238 623 z"},"\"":{"x_min":0,"x_max":555,"ha":555,"o":"m 172 340 l 148 340 l 97 528 q 87 563 87 594 q 87 622 108 643 q 129 665 159 665 q 191 665 211 644 q 232 623 232 595 q 232 574 220 527 z m 407 340 l 383 340 l 334 527 q 322 563 322 595 q 322 619 342 642 q 363 665 396 665 q 430 665 448 642 q 467 619 467 596 q 467 579 454 527 z"},"7":{"x_min":0,"x_max":490,"ha":490,"o":"m 84 640 l 472 640 l 472 607 q 284 328 284 223 q 284 182 302 137 q 320 93 320 71 q 320 31 293 9 q 266 -12 227 -12 q 188 -12 164 11 q 140 34 140 74 q 140 113 177 187 q 214 261 290 378 q 365 496 381 517 l 117 517 q 95 517 88 512 q 81 507 74 486 l 55 427 l 24 427 z"},"S":{"x_min":0,"x_max":490,"ha":490,"o":"m 413 652 l 421 476 l 382 476 q 351 563 312 597 q 272 632 217 632 q 169 632 139 602 q 108 572 108 533 q 108 485 140 467 q 172 449 251 432 q 372 406 413 354 q 454 302 454 222 q 454 128 400 60 q 345 -9 247 -9 q 177 -9 121 35 q 94 14 72 -7 l 39 -7 l 39 184 l 77 184 q 120 23 244 23 q 310 23 345 62 q 380 100 380 148 q 380 175 365 196 q 349 218 329 230 q 308 243 215 262 q 123 281 79 333 q 36 386 36 464 q 36 548 89 606 q 142 664 221 664 q 281 664 341 622 q 360 633 382 652 z"},"}":{"x_min":0,"x_max":394,"ha":394,"o":"m 45 -202 l 45 -180 q 140 -162 140 -88 q 140 -50 128 -5 q 116 40 116 78 q 116 125 154 171 q 192 217 276 236 l 276 238 q 185 263 150 309 q 115 355 115 396 q 115 435 127 475 q 139 529 139 561 q 139 635 45 655 l 45 677 q 143 678 195 628 q 246 578 246 524 q 246 486 233 439 q 220 392 220 352 q 220 268 315 252 l 315 223 q 267 214 243 186 q 220 158 220 119 q 220 88 230 43 q 245 -2 245 -46 q 245 -99 198 -148 q 152 -197 45 -202 z"},"Z":{"x_min":0,"x_max":646,"ha":646,"o":"m 65 655 l 596 655 l 596 626 l 219 32 l 339 32 q 379 32 414 43 q 450 53 491 99 q 532 146 564 241 l 606 241 l 600 0 l 40 0 l 40 39 l 409 623 l 277 623 q 202 623 165 585 q 129 548 103 451 l 65 451 z"},"x":{"x_min":0,"x_max":490,"ha":490,"o":"m 15 393 l 257 393 l 257 363 l 205 363 l 273 266 l 320 322 q 338 343 338 351 q 338 363 312 363 l 298 363 l 298 393 l 456 393 l 456 363 q 414 363 400 357 q 385 351 357 317 l 292 240 l 435 30 l 475 30 l 475 0 l 220 0 l 220 30 l 278 30 l 205 139 l 147 71 q 128 49 128 42 q 128 30 148 30 l 171 30 l 171 0 l 22 0 l 22 30 l 36 30 q 62 30 72 35 q 82 41 103 66 l 187 165 l 50 363 l 15 363 z"},")":{"x_min":0,"x_max":427,"ha":427,"o":"m 85 -246 l 43 -246 q 149 -140 191 -33 q 233 73 233 209 q 233 365 184 470 q 136 575 43 664 l 85 664 q 236 544 305 436 q 374 328 374 212 q 374 94 308 -13 q 241 -121 85 -246 z"},"&":{"x_min":0,"x_max":760,"ha":760,"o":"m 719 0 l 474 0 l 439 58 q 361 -6 252 -6 q 148 -6 94 45 q 41 97 41 169 q 41 308 247 381 q 203 459 203 509 q 203 580 257 617 q 311 655 386 655 q 458 655 511 622 q 565 589 565 531 q 565 446 404 404 l 533 189 q 565 234 586 277 q 607 320 607 338 q 607 359 577 359 l 513 359 l 513 393 l 736 393 l 736 359 l 694 359 q 668 359 662 354 q 655 350 621 279 q 588 208 549 160 l 626 29 l 719 29 z m 353 488 l 389 429 q 429 441 443 468 q 456 495 456 541 q 456 585 436 609 q 416 633 383 633 q 353 633 335 617 q 317 602 317 578 q 317 547 353 488 z m 423 84 l 260 359 q 180 329 180 267 q 180 207 231 124 q 281 41 331 41 q 362 41 423 84 z"},"_":{"x_min":0,"x_max":500,"ha":500,"o":"m 506 -125 l -6 -125 l -6 -75 l 506 -75 z"},"v":{"x_min":0,"x_max":469,"ha":469,"o":"m -5 393 l 239 393 l 239 363 l 183 363 l 279 160 l 345 309 q 345 311 351 323 q 357 335 357 345 q 357 363 325 363 l 299 363 l 299 393 l 451 393 l 451 363 q 419 363 409 360 q 399 358 378 308 l 239 -12 l 216 -12 l 40 363 l -5 363 z"},"O":{"x_min":0,"x_max":646,"ha":646,"o":"m 30 330 q 30 477 117 571 q 204 664 325 664 q 438 664 527 576 q 616 488 616 326 q 616 174 532 83 q 448 -9 326 -9 q 195 -9 112 88 q 30 186 30 330 z m 434 327 q 434 478 428 525 q 423 573 400 603 q 376 632 323 632 q 278 632 252 608 q 225 584 219 532 q 212 480 212 328 q 212 178 218 129 q 223 81 247 52 q 271 23 323 23 q 366 23 393 46 q 420 69 427 122 q 434 174 434 327 z"},"(":{"x_min":0,"x_max":427,"ha":427,"o":"m 342 664 l 384 664 q 278 558 236 451 q 194 345 194 209 q 194 53 242 -52 q 291 -157 384 -246 l 342 -246 q 191 -126 122 -18 q 53 90 53 206 q 53 324 120 431 q 186 539 342 664 z"},"C":{"x_min":0,"x_max":542,"ha":542,"o":"m 503 647 l 507 464 l 475 464 q 431 632 314 632 q 261 632 238 585 q 215 539 215 397 q 215 133 231 79 q 248 26 307 26 q 428 26 485 199 l 517 199 l 507 -3 l 475 -3 q 460 17 439 42 q 375 -9 296 -9 q 193 -9 113 80 q 33 168 33 322 q 33 474 113 569 q 193 664 311 664 q 381 664 439 616 q 460 632 475 647 z"},"W":{"x_min":0,"x_max":969,"ha":969,"o":"m 590 447 l 690 197 l 831 553 q 831 554 839 573 q 847 592 847 607 q 847 623 814 623 l 781 623 l 781 655 l 962 655 l 962 623 l 947 623 q 907 623 898 615 q 890 608 871 561 l 643 -12 l 611 -12 l 501 261 l 369 -12 l 337 -12 l 82 623 l 12 623 l 12 655 l 738 655 l 738 623 l 721 623 q 689 623 678 615 q 667 606 649 569 z m 520 623 l 574 488 l 616 576 q 625 594 625 605 q 625 623 596 623 z m 244 623 l 424 177 l 485 304 l 356 623 z"},"A":{"x_min":0,"x_max":698,"ha":698,"o":"m 391 183 l 185 183 l 157 116 q 141 76 141 58 q 141 32 190 32 l 226 32 l 226 0 l 15 0 l 15 32 l 34 32 q 72 32 85 45 q 98 58 117 104 l 346 667 l 375 667 l 615 32 l 683 32 l 683 0 l 361 0 l 361 32 l 448 32 z m 199 217 l 378 217 l 292 444 z"},"f":{"x_min":0,"x_max":323,"ha":323,"o":"m 220 363 l 220 30 l 297 30 l 297 0 l 25 0 l 25 30 l 88 30 l 88 363 l 19 363 l 19 393 l 88 393 q 92 664 275 664 q 325 664 357 642 q 390 619 390 581 q 390 554 372 536 q 353 518 328 518 q 304 518 288 533 q 272 548 272 571 q 272 592 284 605 q 296 618 296 622 q 296 636 270 636 q 245 636 229 617 q 214 597 214 566 l 220 446 l 220 393 l 291 393 l 291 363 z"},"Q":{"x_min":0,"x_max":646,"ha":646,"o":"m 571 -165 l 571 -199 q 534 -209 471 -209 q 355 -209 294 -167 q 233 -125 233 -29 q 233 -16 234 5 q 136 40 83 128 q 30 217 30 330 q 30 478 117 571 q 205 664 324 664 q 437 664 527 576 q 616 488 616 326 q 616 206 562 122 q 507 38 416 5 q 412 -111 444 -140 q 476 -168 537 -168 q 544 -168 571 -165 z m 434 327 q 434 478 428 525 q 423 573 400 603 q 376 632 323 632 q 278 632 252 608 q 225 584 219 532 q 212 480 212 328 q 212 178 218 129 q 223 81 247 51 q 271 22 323 22 q 365 22 393 45 q 420 69 427 121 q 434 172 434 327 z"},"w":{"x_min":0,"x_max":698,"ha":698,"o":"m 10 393 l 266 393 l 266 363 l 194 363 l 278 153 l 381 393 l 413 393 l 531 153 l 588 321 q 595 342 595 350 q 595 363 564 363 l 531 363 l 531 393 l 688 393 l 688 363 l 670 363 q 647 363 638 356 q 630 349 618 316 l 502 -12 l 468 -12 l 349 238 l 242 -12 l 208 -12 l 56 363 l 10 363 z"},"-":{"x_min":0,"x_max":375,"ha":375,"o":"m 67 255 l 308 255 l 308 140 l 67 140 z"},"E":{"x_min":0,"x_max":646,"ha":646,"o":"m 270 623 l 270 346 l 291 346 q 393 346 409 462 l 441 462 l 441 194 l 409 194 q 401 314 291 314 l 270 314 l 270 32 l 382 32 q 530 32 575 215 l 609 215 l 595 0 l 27 0 l 27 32 l 110 32 l 110 623 l 27 623 l 27 655 l 575 655 l 584 472 l 552 472 q 521 565 475 594 q 430 623 355 623 z"},"s":{"x_min":0,"x_max":375,"ha":375,"o":"m 321 405 l 321 283 l 291 283 q 264 375 173 375 q 139 375 114 359 q 89 342 89 319 q 89 299 108 288 q 127 277 207 270 q 286 262 318 228 q 351 193 351 140 q 351 73 310 31 q 269 -12 198 -12 q 129 -12 84 29 l 53 4 l 31 4 l 31 147 l 60 147 q 92 20 199 20 q 238 20 266 38 q 294 56 294 84 q 294 104 279 116 q 264 128 208 134 q 152 141 116 152 q 80 163 57 192 q 34 221 34 269 q 34 325 73 365 q 112 405 181 405 q 230 405 275 377 l 298 405 z"},">":{"x_min":0,"x_max":667,"ha":667,"o":"m 64 594 l 603 369 l 603 287 l 64 62 l 64 159 l 480 328 l 64 496 z"},"l":{"x_min":0,"x_max":271,"ha":271,"o":"m 203 664 l 203 30 l 244 30 l 244 0 l 26 0 l 26 30 l 70 30 l 70 625 l 26 625 l 26 655 q 87 655 147 660 l 187 664 z"},"8":{"x_min":0,"x_max":490,"ha":490,"o":"m 289 333 l 289 331 q 381 318 424 270 q 468 221 468 160 q 468 85 411 36 q 354 -12 248 -12 q 138 -12 80 39 q 22 91 22 164 q 22 293 191 331 l 191 333 q 46 377 46 489 q 46 557 103 604 q 160 652 249 652 q 339 652 394 601 q 448 550 448 487 q 448 374 289 333 z m 245 345 q 281 345 289 380 q 297 415 297 500 q 297 582 284 602 q 271 622 245 622 q 220 622 206 601 q 192 579 192 485 q 192 409 203 377 q 214 345 245 345 z m 246 20 q 279 20 295 47 q 312 75 312 174 q 312 261 295 288 q 278 315 243 315 q 202 315 190 279 q 178 244 178 160 q 178 75 194 48 q 210 20 246 20 z"},"\\":{"x_min":0,"x_max":281,"ha":281,"o":"m 281 -13 l 185 -13 l 0 664 l 96 664 z"},"e":{"x_min":0,"x_max":427,"ha":427,"o":"m 414 219 l 174 219 l 174 156 q 174 81 187 52 q 201 24 249 24 q 292 24 328 51 q 365 79 385 136 l 414 136 q 396 62 347 25 q 298 -12 230 -12 q 137 -12 81 52 q 25 116 25 199 q 25 279 82 342 q 138 405 223 405 q 296 405 351 359 q 405 313 414 219 z m 174 251 l 279 251 l 279 292 q 279 345 264 361 q 250 377 225 377 q 202 377 188 363 q 174 349 174 291 z"},"b":{"x_min":0,"x_max":490,"ha":490,"o":"m 201 664 l 201 350 l 203 350 q 238 405 304 405 q 366 405 415 348 q 464 292 464 201 q 464 111 415 49 q 365 -12 302 -12 q 237 -12 203 48 l 201 48 l 201 -6 l 187 -6 q 143 0 80 0 l 15 0 l 15 30 l 68 30 l 68 625 l 15 625 l 15 655 l 79 655 q 106 655 149 660 l 187 664 z m 201 241 l 201 141 q 201 79 223 50 q 245 22 272 22 q 295 22 304 46 q 313 71 313 147 l 313 255 q 313 342 303 359 q 293 377 273 377 q 250 377 226 342 q 201 307 201 241 z"},"%":{"x_min":0,"x_max":927,"ha":927,"o":"m 235 664 q 303 664 349 621 q 395 577 395 491 q 395 406 349 362 q 303 318 234 318 q 165 318 118 362 q 72 405 72 490 q 72 577 118 620 q 165 664 235 664 z m 265 445 l 267 508 q 270 598 261 622 q 252 645 234 645 q 211 645 205 608 q 200 570 200 500 q 200 399 206 368 q 213 337 232 337 q 253 337 258 354 q 263 372 265 445 z m 709 664 l 278 -38 l 216 -38 l 648 664 z m 694 308 q 762 308 808 265 q 854 221 854 135 q 854 50 808 6 q 762 -38 693 -38 q 624 -38 577 6 q 531 49 531 134 q 531 221 577 264 q 624 308 694 308 z m 724 89 l 726 152 q 729 242 720 266 q 711 289 693 289 q 670 289 664 252 q 659 214 659 144 q 659 43 665 12 q 672 -19 691 -19 q 712 -19 717 -1 q 722 16 724 89 z"},"m":{"x_min":0,"x_max":813,"ha":813,"o":"m 200 405 l 200 321 l 202 321 q 249 405 352 405 q 460 405 472 316 q 526 405 615 405 q 674 405 702 388 q 731 372 739 347 q 746 323 746 284 l 746 30 l 802 30 l 802 0 l 556 0 l 556 30 l 613 30 l 613 295 q 613 342 603 353 q 593 364 576 364 q 547 364 518 338 q 488 312 481 281 q 473 251 473 197 l 473 30 l 530 30 l 530 0 l 283 0 l 283 30 l 340 30 l 340 292 q 340 339 330 351 q 319 363 301 363 q 267 363 233 332 q 200 301 200 215 l 200 30 l 257 30 l 257 0 l 11 0 l 11 30 l 67 30 l 67 363 l 11 363 l 11 393 l 80 393 q 117 393 150 399 l 181 405 z"},"#":{"x_min":0,"x_max":668,"ha":668,"o":"m 40 489 l 194 489 l 235 680 l 315 680 l 274 489 l 459 489 l 499 680 l 580 680 l 539 489 l 627 489 l 627 408 l 524 408 l 491 248 l 627 248 l 627 168 l 475 168 l 434 -22 l 353 -22 l 395 168 l 208 168 l 169 -22 l 88 -22 l 128 168 l 40 168 l 40 248 l 145 248 l 178 408 l 40 408 z m 443 408 l 258 408 l 225 249 l 410 249 z"},",":{"x_min":0,"x_max":271,"ha":271,"o":"m 97 -179 l 81 -154 q 187 -83 187 -3 q 187 24 174 24 q 168 24 158 11 q 141 -12 108 -12 q 82 -12 62 9 q 42 31 42 63 q 42 98 65 122 q 89 146 123 146 q 165 146 197 110 q 229 74 229 17 q 229 -101 97 -179 z"},"n":{"x_min":0,"x_max":542,"ha":542,"o":"m 205 405 l 205 322 l 207 322 q 259 405 352 405 q 394 405 425 387 q 456 370 465 351 q 473 333 473 296 l 473 30 l 529 30 l 529 0 l 283 0 l 283 30 l 340 30 l 340 303 q 340 340 330 352 q 320 363 302 363 q 277 363 241 332 q 205 301 205 224 l 205 30 l 262 30 l 262 0 l 15 0 l 15 30 l 72 30 l 72 363 l 16 363 l 16 393 l 52 393 q 100 393 147 399 l 191 405 z"},"h":{"x_min":0,"x_max":542,"ha":542,"o":"m 205 664 l 205 311 l 207 311 q 252 405 348 405 q 390 405 433 378 q 475 352 475 276 l 475 30 l 531 30 l 531 0 l 286 0 l 286 30 l 342 30 l 342 304 q 342 361 304 361 q 259 361 232 316 q 205 271 205 257 l 205 30 l 262 30 l 262 0 l 15 0 l 15 30 l 72 30 l 72 625 l 11 625 l 11 655 l 65 655 q 107 655 156 660 l 190 664 z"},"z":{"x_min":0,"x_max":427,"ha":427,"o":"m 40 393 l 410 393 l 410 369 l 177 30 l 231 30 q 279 30 300 49 q 320 67 380 174 l 410 174 l 402 0 l 17 0 l 17 29 l 248 363 l 215 363 q 161 363 142 347 q 123 332 65 238 l 33 238 z"},"B":{"x_min":0,"x_max":646,"ha":646,"o":"m 355 0 l 18 0 l 18 32 l 101 32 l 101 623 l 18 623 l 18 655 l 365 655 q 486 655 538 608 q 590 562 590 501 q 590 450 550 406 q 510 361 410 347 l 410 345 q 614 319 614 181 q 614 99 548 50 q 483 0 355 0 z m 261 623 l 261 361 l 299 361 q 371 361 396 381 q 420 401 420 493 q 420 570 400 597 q 380 623 313 623 z m 310 329 l 261 329 l 261 32 l 299 32 q 387 32 411 61 q 436 89 436 192 q 436 274 407 302 q 378 329 310 329 z"},"K":{"x_min":0,"x_max":740,"ha":740,"o":"m 267 623 l 267 32 l 350 32 l 350 0 l 21 0 l 21 32 l 107 32 l 107 623 l 21 623 l 21 655 l 350 655 l 350 623 z m 399 433 l 670 32 l 746 32 l 746 0 l 402 0 l 402 32 l 482 32 l 273 344 l 490 567 q 517 594 517 607 q 517 623 479 623 l 435 623 l 435 655 l 685 655 l 685 623 l 660 623 q 616 623 591 612 q 566 600 517 551 z"},"R":{"x_min":0,"x_max":698,"ha":698,"o":"m 260 334 l 260 32 l 345 32 l 345 0 l 17 0 l 17 32 l 100 32 l 100 623 l 17 623 l 17 655 l 345 655 q 503 655 561 606 q 618 558 618 503 q 618 444 565 403 q 513 361 407 348 l 407 346 q 487 326 526 293 q 565 260 575 220 q 585 180 586 125 q 587 69 595 56 q 604 43 627 43 q 652 43 682 59 l 682 22 q 634 -3 576 -3 q 500 -3 454 35 q 408 73 405 173 q 402 273 379 304 q 356 334 295 334 z m 260 623 l 260 366 l 322 366 q 386 366 411 390 q 436 414 436 498 q 436 579 413 601 q 389 623 331 623 z"},"T":{"x_min":0,"x_max":594,"ha":594,"o":"m 26 655 l 568 655 l 572 441 l 542 441 q 506 623 392 623 l 377 623 l 377 32 l 476 32 l 476 0 l 118 0 l 118 32 l 217 32 l 217 623 l 202 623 q 88 623 52 441 l 22 441 z"},"P":{"x_min":0,"x_max":594,"ha":594,"o":"m 253 306 l 253 32 l 347 32 l 347 0 l 11 0 l 11 32 l 93 32 l 93 623 l 11 623 l 11 655 l 322 655 q 460 655 519 603 q 577 551 577 482 q 577 412 512 359 q 447 306 282 306 z m 253 623 l 253 338 l 286 338 q 330 338 353 345 q 377 352 392 383 q 407 414 407 482 q 407 548 392 579 q 377 609 354 616 q 331 623 288 623 z"},"|":{"x_min":0,"x_max":566,"ha":566,"o":"m 237 664 l 328 664 l 328 -257 l 237 -257 z"},"t":{"x_min":0,"x_max":323,"ha":323,"o":"m 200 515 l 200 393 l 299 393 l 299 363 l 200 363 l 200 96 q 200 43 233 43 q 263 43 278 96 l 308 96 q 299 41 269 17 q 239 -7 172 -7 q 124 -7 101 8 q 79 23 73 44 q 68 64 68 96 l 68 363 l 13 363 l 13 393 l 68 393 l 68 492 z"},"M":{"x_min":0,"x_max":813,"ha":813,"o":"m 289 655 l 411 276 l 534 655 l 792 655 l 792 623 l 708 623 l 708 32 l 792 32 l 792 0 l 462 0 l 462 32 l 548 32 l 548 588 l 359 0 l 336 0 l 144 595 l 144 99 q 144 58 154 45 q 165 32 211 32 l 234 32 l 234 0 l 15 0 l 15 32 l 55 32 q 93 32 102 45 q 110 58 110 96 l 110 623 l 15 623 l 15 655 z"},"g":{"x_min":0,"x_max":490,"ha":490,"o":"m 386 344 q 415 311 415 267 q 415 204 362 165 q 308 125 241 125 q 223 125 201 127 q 179 130 159 130 q 117 130 94 115 q 71 100 71 81 q 71 56 114 56 q 144 56 200 62 q 255 67 324 67 q 457 67 457 -59 q 457 -152 389 -205 q 321 -257 213 -257 q 126 -257 73 -226 q 21 -195 21 -146 q 21 -108 87 -58 q 26 -38 26 36 q 26 124 123 149 q 48 193 48 265 q 48 319 96 362 q 145 405 233 405 q 316 405 371 360 q 392 417 433 417 q 475 417 475 369 q 475 327 445 327 q 432 327 422 341 q 412 354 402 354 q 395 354 386 344 z m 233 150 q 268 150 276 175 q 284 201 284 271 q 284 336 276 359 q 267 382 230 382 q 200 382 189 362 q 178 343 178 259 q 178 184 193 167 q 207 150 233 150 z m 113 -63 q 96 -100 96 -123 q 96 -175 135 -202 q 175 -228 238 -228 q 318 -228 366 -189 q 414 -149 414 -101 q 414 -57 358 -57 l 153 -67 q 142 -67 113 -63 z"},"j":{"x_min":0,"x_max":323,"ha":323,"o":"m 98 574 q 98 604 119 624 q 139 645 169 645 q 199 645 220 624 q 241 603 241 574 q 241 544 220 523 q 199 502 169 502 q 140 502 119 523 q 98 544 98 574 z m 240 405 l 240 -7 q 240 -131 184 -194 q 128 -257 43 -257 q 1 -257 -20 -239 q -42 -221 -42 -192 q -42 -168 -25 -153 q -7 -137 17 -137 q 36 -137 50 -148 q 63 -159 70 -199 q 73 -219 85 -219 q 109 -219 109 -173 l 107 -108 l 107 363 l 46 363 l 46 393 l 114 393 q 162 393 198 399 q 235 405 240 405 z"},"i":{"x_min":0,"x_max":271,"ha":271,"o":"m 63 572 q 63 602 84 622 q 104 643 134 643 q 164 643 185 622 q 206 601 206 572 q 206 542 185 521 q 164 500 134 500 q 104 500 84 521 q 63 542 63 572 z m 205 405 l 205 30 l 243 30 l 243 0 l 25 0 l 25 30 l 72 30 l 72 363 l 25 363 l 25 393 l 87 393 q 135 393 168 399 q 201 405 205 405 z"},"y":{"x_min":0,"x_max":490,"ha":490,"o":"m 16 393 l 260 393 l 260 363 l 201 363 l 303 154 l 368 306 q 380 336 380 345 q 380 363 340 363 l 322 363 l 322 393 l 474 393 l 474 363 q 442 363 432 355 q 421 348 408 318 l 199 -165 q 199 -178 172 -217 q 144 -256 90 -256 q 59 -256 39 -238 q 18 -219 18 -195 q 18 -171 35 -153 q 51 -135 74 -135 q 107 -135 129 -173 q 135 -184 142 -184 q 159 -184 179 -135 l 235 0 l 55 363 l 16 363 z"},"@":{"x_min":0,"x_max":930,"ha":930,"o":"m 576 452 l 695 457 l 605 150 l 596 110 q 591 88 591 73 q 591 59 602 47 q 613 35 629 35 q 692 35 767 124 q 841 213 841 339 q 841 470 756 559 q 670 647 528 647 q 336 647 216 514 q 96 381 96 196 q 96 25 205 -82 q 314 -189 478 -189 q 604 -189 716 -120 q 827 -51 878 81 l 908 81 q 854 -60 740 -138 q 625 -216 477 -216 q 291 -216 168 -95 q 45 25 45 213 q 45 410 177 543 q 310 677 517 677 q 681 677 775 583 q 868 489 868 348 q 868 207 785 103 q 703 0 575 0 q 525 0 501 25 q 476 49 476 84 q 476 116 488 152 l 486 154 q 401 0 319 0 q 279 0 258 31 q 237 62 237 108 q 237 247 327 358 q 417 470 490 470 q 551 470 558 394 l 560 394 z m 537 372 q 537 398 527 417 q 518 435 501 435 q 461 435 412 319 q 363 203 363 134 q 363 116 371 102 q 380 89 392 89 q 427 89 482 184 q 537 279 537 372 z"},".":{"x_min":0,"x_max":271,"ha":271,"o":"m 50 72 q 50 107 75 132 q 101 157 135 157 q 170 157 195 132 q 220 107 220 72 q 220 37 195 12 q 170 -13 135 -13 q 101 -13 75 12 q 50 37 50 72 z"},"p":{"x_min":0,"x_max":490,"ha":490,"o":"m 201 405 l 201 343 l 203 343 q 236 405 301 405 q 363 405 412 344 q 462 282 462 195 q 462 107 417 47 q 371 -12 305 -12 q 244 -12 201 42 l 201 -227 l 263 -227 l 263 -257 l 14 -257 l 14 -227 l 68 -227 l 68 363 l 14 363 l 14 393 l 35 393 q 44 393 68 394 q 92 395 123 398 l 187 405 z m 201 252 l 201 145 q 201 83 225 50 q 248 17 276 17 q 292 17 301 33 q 311 50 311 127 l 311 250 q 311 328 302 351 q 292 373 275 373 q 240 373 220 339 q 201 305 201 252 z"},"X":{"x_min":0,"x_max":698,"ha":698,"o":"m 407 403 l 629 32 l 682 32 l 682 0 l 358 0 l 358 32 l 447 32 l 308 263 l 187 96 q 160 59 160 45 q 160 32 198 32 l 241 32 l 241 0 l 27 0 l 27 32 l 45 32 q 84 32 98 41 q 111 49 138 86 l 289 296 l 94 623 l 27 623 l 27 655 l 344 655 l 344 623 l 275 623 l 388 435 l 489 574 q 507 600 507 609 q 507 623 473 623 l 424 623 l 424 655 l 642 655 l 642 623 l 604 623 q 577 623 565 616 q 554 609 529 574 z"},"*":{"x_min":0,"x_max":490,"ha":490,"o":"m 228 441 q 207 445 196 445 q 182 445 149 440 q 116 435 111 435 q 80 435 58 450 q 36 466 36 496 q 36 518 51 535 q 66 552 90 552 q 107 552 126 543 q 144 535 172 507 q 199 479 235 461 q 228 499 208 540 q 187 581 187 603 q 187 633 205 649 q 224 664 247 664 q 271 664 288 647 q 304 631 304 601 q 304 583 300 571 q 295 559 278 529 q 260 499 255 461 q 285 477 326 515 q 367 553 396 553 q 417 553 436 537 q 454 520 454 496 q 454 466 431 450 q 408 434 385 434 q 378 434 349 439 q 319 445 308 445 q 293 445 263 441 q 288 414 326 396 q 363 379 380 361 q 396 342 396 317 q 396 295 379 277 q 362 260 338 260 q 316 260 301 275 q 285 291 279 303 q 273 315 268 355 q 263 396 246 429 q 229 401 223 359 q 213 260 153 260 q 129 260 112 276 q 94 292 94 315 q 94 362 161 394 q 208 417 228 441 z"},"Y":{"x_min":0,"x_max":646,"ha":646,"o":"m 19 655 l 325 655 l 325 623 l 249 623 l 397 346 l 509 568 q 511 571 518 587 q 524 602 524 608 q 524 623 494 623 l 468 623 l 468 655 l 635 655 l 635 623 q 595 623 581 614 q 566 604 548 568 l 412 305 l 412 32 l 513 32 l 513 0 l 151 0 l 151 32 l 252 32 l 252 297 l 66 623 l 19 623 z"},"c":{"x_min":0,"x_max":427,"ha":427,"o":"m 390 129 l 417 129 q 409 62 359 25 q 309 -12 243 -12 q 154 -12 91 48 q 27 107 27 192 q 27 277 92 341 q 157 405 250 405 q 315 405 362 374 q 408 343 408 293 q 408 267 389 248 q 370 229 339 229 q 311 229 292 248 q 272 266 272 294 q 272 331 298 344 q 308 350 308 358 q 308 366 292 372 q 275 377 254 377 q 217 377 198 351 q 178 325 178 213 q 178 96 191 58 q 205 21 259 21 q 358 21 390 129 z"},"!":{"x_min":0,"x_max":271,"ha":271,"o":"m 148 202 l 117 202 l 117 224 q 117 292 89 410 q 61 528 61 574 q 61 619 82 644 q 103 668 137 668 q 168 668 189 645 q 210 621 210 582 q 210 529 179 413 q 148 296 148 223 z m 135 149 q 165 149 189 127 q 213 106 213 74 q 213 41 190 17 q 167 -7 135 -7 q 103 -7 80 16 q 57 40 57 72 q 57 104 80 126 q 103 149 135 149 z"},"/":{"x_min":0,"x_max":281,"ha":281,"o":"m 0 -13 l 185 664 l 281 664 l 96 -13 z"},"[":{"x_min":0,"x_max":427,"ha":427,"o":"m 253 625 l 253 -206 l 397 -206 l 397 -236 l 128 -236 l 128 655 l 397 655 l 397 625 z"},"6":{"x_min":0,"x_max":490,"ha":490,"o":"m 196 373 l 198 371 q 227 412 285 412 q 362 412 415 349 q 467 286 467 207 q 467 120 403 54 q 339 -12 253 -12 q 156 -12 92 64 q 28 141 28 277 q 28 403 88 491 q 148 578 244 619 q 340 660 403 660 q 420 660 420 644 q 420 629 406 629 q 327 623 268 559 q 208 496 196 373 z m 258 373 q 214 373 201 336 q 188 300 188 202 q 188 90 200 53 q 212 16 247 16 q 281 16 295 43 q 309 70 309 139 q 309 306 299 340 q 288 373 258 373 z"},"r":{"x_min":0,"x_max":375,"ha":375,"o":"m 190 399 l 190 291 l 192 291 q 204 349 230 377 q 257 405 290 405 q 322 405 342 382 q 362 359 362 326 q 362 298 347 281 q 332 263 310 263 q 289 263 273 279 q 258 295 258 315 q 258 339 266 349 q 275 359 275 362 q 275 367 267 367 q 243 367 220 319 q 198 271 198 164 l 198 30 l 271 30 l 271 0 l 14 0 l 14 30 l 65 30 l 65 363 l 14 363 l 14 393 l 79 393 q 131 393 155 396 l 173 399 z"},"2":{"x_min":0,"x_max":490,"ha":490,"o":"m 448 212 l 433 0 l 28 0 l 28 87 q 57 114 84 137 q 219 250 258 302 q 297 355 297 455 q 297 610 201 610 q 163 610 133 591 q 103 573 103 548 q 103 531 128 531 q 153 530 177 514 q 201 498 201 458 q 201 425 178 405 q 155 385 129 385 q 98 385 71 410 q 45 436 45 483 q 45 553 99 602 q 153 652 239 652 q 331 652 394 599 q 458 547 458 473 q 458 363 313 263 l 117 128 l 117 126 l 362 126 q 392 126 403 139 q 415 153 416 212 z"},"{":{"x_min":0,"x_max":394,"ha":394,"o":"m 351 678 l 351 656 q 256 637 256 564 q 256 526 268 486 q 280 446 280 398 q 280 352 242 305 q 204 259 120 240 l 120 238 q 211 213 246 167 q 281 121 281 80 q 281 41 269 1 q 257 -53 257 -85 q 257 -159 351 -179 l 351 -201 q 253 -202 201 -152 q 150 -102 150 -48 q 150 -10 163 37 q 176 84 176 124 q 176 208 81 224 l 81 253 q 129 262 153 290 q 176 318 176 357 q 176 388 166 433 q 151 478 151 522 q 151 575 198 624 q 244 673 351 678 z"},"9":{"x_min":0,"x_max":490,"ha":490,"o":"m 294 267 l 292 269 q 263 228 205 228 q 127 228 75 291 q 23 354 23 433 q 23 521 87 586 q 150 652 237 652 q 334 652 398 575 q 462 499 462 363 q 462 236 402 149 q 342 62 246 21 q 150 -20 87 -20 q 70 -20 70 -4 q 70 11 84 11 q 163 17 222 81 q 282 144 294 267 z m 232 267 q 266 267 284 296 q 302 326 302 438 q 302 550 290 587 q 278 624 243 624 q 209 624 195 597 q 181 570 181 501 q 181 333 191 300 q 202 267 232 267 z"}," ":{"x_min":0,"x_max":245,"ha":245,"o":""},"I":{"x_min":0,"x_max":375,"ha":375,"o":"m 266 623 l 266 32 l 355 32 l 355 0 l 20 0 l 20 32 l 106 32 l 106 623 l 20 623 l 20 655 l 355 655 l 355 623 z"},"H":{"x_min":0,"x_max":760,"ha":760,"o":"m 488 321 l 272 321 l 272 32 l 355 32 l 355 0 l 29 0 l 29 32 l 112 32 l 112 623 l 29 623 l 29 655 l 355 655 l 355 623 l 272 623 l 272 355 l 488 355 l 488 623 l 406 623 l 406 655 l 731 655 l 731 623 l 648 623 l 648 32 l 731 32 l 731 0 l 406 0 l 406 32 l 488 32 z"},"4":{"x_min":0,"x_max":490,"ha":490,"o":"m 366 652 l 366 205 l 437 205 l 437 269 l 468 269 l 468 108 l 437 108 l 437 173 l 366 173 l 366 32 l 437 32 l 437 0 l 145 0 l 145 32 l 225 32 l 225 173 l 14 173 l 14 206 l 296 652 z m 223 482 l 50 205 l 225 205 l 225 482 z"},"~":{"x_min":0,"x_max":667,"ha":667,"o":"m 570 412 l 605 412 q 604 330 564 282 q 524 234 462 234 q 429 234 395 244 q 361 255 286 287 q 210 320 178 320 q 109 320 97 234 l 62 234 q 66 328 106 370 q 146 412 201 412 q 259 412 389 356 q 459 325 489 325 q 521 325 543 347 q 566 369 570 412 z"},"D":{"x_min":0,"x_max":698,"ha":698,"o":"m 101 32 l 101 623 l 19 623 l 19 655 l 351 655 q 495 655 579 563 q 663 472 663 333 q 663 261 637 197 q 612 134 559 82 q 505 30 449 15 q 394 0 312 0 l 19 0 l 19 32 z m 261 623 l 261 32 l 313 32 q 432 32 456 102 q 481 171 481 340 q 481 472 466 529 q 451 587 420 605 q 389 623 342 623 z"},"^":{"x_min":0,"x_max":581,"ha":581,"o":"m 67 313 l 263 664 l 317 664 l 513 313 l 429 313 l 290 562 l 151 313 z"},"0":{"x_min":0,"x_max":490,"ha":490,"o":"m 246 652 q 338 652 403 557 q 468 463 468 317 q 468 245 437 160 q 406 75 352 31 q 298 -12 244 -12 q 155 -12 88 86 q 22 184 22 321 q 22 457 87 554 q 152 652 246 652 z m 242 20 q 271 20 287 53 q 302 87 305 269 l 308 404 q 308 514 293 567 q 278 620 245 620 q 206 620 194 550 q 182 480 182 298 q 182 158 191 102 q 199 45 211 33 q 222 20 242 20 z"},"F":{"x_min":0,"x_max":594,"ha":594,"o":"m 264 623 l 264 347 l 280 347 q 394 347 405 463 l 441 463 l 441 193 l 409 193 q 406 243 378 279 q 350 315 280 315 l 264 315 l 264 32 l 358 32 l 358 0 l 21 0 l 21 32 l 104 32 l 104 623 l 21 623 l 21 655 l 570 655 l 575 455 l 541 455 q 507 623 367 623 z"},"`":{"x_min":0,"x_max":333,"ha":333,"o":"m 193 638 l 253 476 l 235 476 l 20 638 z"},"k":{"x_min":0,"x_max":542,"ha":542,"o":"m 205 664 l 205 210 l 309 310 q 310 312 325 327 q 340 343 340 348 q 340 363 305 363 l 278 363 l 278 393 l 485 393 l 485 363 l 470 363 q 434 363 412 356 q 390 349 361 320 l 313 272 l 489 30 l 528 30 l 528 0 l 278 0 l 278 30 l 330 30 l 207 204 l 205 204 l 205 30 l 250 30 l 250 0 l 17 0 l 17 30 l 73 30 l 73 625 l 17 625 l 17 655 l 62 655 l 179 664 z"},"u":{"x_min":0,"x_max":542,"ha":542,"o":"m 470 393 l 470 29 l 526 29 l 526 0 l 444 0 q 382 0 364 -3 q 346 -6 337 -7 l 337 73 l 335 73 q 315 36 276 15 q 237 -7 191 -7 q 147 -7 116 11 q 85 28 77 50 q 69 71 69 117 l 69 363 l 13 363 l 13 393 l 202 393 l 202 133 q 202 73 207 54 q 212 35 235 35 q 259 35 289 56 q 318 77 328 104 q 337 131 337 179 l 337 363 l 272 363 l 272 393 z"},"]":{"x_min":0,"x_max":427,"ha":427,"o":"m 174 -206 l 174 625 l 30 625 l 30 655 l 299 655 l 299 -236 l 30 -236 l 30 -206 z"},"U":{"x_min":0,"x_max":698,"ha":698,"o":"m 264 623 l 264 200 q 264 99 301 64 q 338 30 402 30 q 450 30 488 48 q 527 66 549 102 q 571 139 571 226 l 571 572 q 571 605 566 614 q 562 623 525 623 l 480 623 l 480 655 l 689 655 l 689 623 l 658 623 q 622 623 613 615 q 605 606 605 568 l 605 229 q 605 165 593 116 q 580 67 527 29 q 473 -9 362 -9 q 303 -9 248 5 q 192 18 157 52 q 122 86 113 122 q 104 158 104 206 l 104 623 l 18 623 l 18 655 l 354 655 l 354 623 z"},"o":{"x_min":0,"x_max":490,"ha":490,"o":"m 244 -12 q 146 -12 87 50 q 29 113 29 196 q 29 280 88 342 q 148 405 244 405 q 341 405 401 343 q 461 281 461 196 q 461 111 402 49 q 342 -12 244 -12 z m 244 380 q 218 380 203 367 q 187 355 184 329 q 180 304 180 196 q 180 91 183 67 q 187 43 203 28 q 219 13 247 13 q 270 13 286 26 q 303 39 307 73 q 310 107 310 188 q 310 314 300 347 q 291 380 244 380 z"},"N":{"x_min":0,"x_max":646,"ha":646,"o":"m 259 655 l 519 270 l 519 552 q 519 596 510 610 q 501 623 464 623 l 433 623 l 433 655 l 632 655 l 632 623 l 609 623 q 572 623 562 612 q 553 601 553 567 l 553 -9 l 519 -9 l 130 567 l 130 94 q 130 55 138 43 q 146 32 184 32 l 222 32 l 222 0 l 15 0 l 15 32 l 41 32 q 81 32 88 45 q 96 59 96 115 l 96 567 q 96 604 89 614 q 82 623 48 623 l 12 623 l 12 655 z"},"+":{"x_min":0,"x_max":667,"ha":667,"o":"m 64 372 l 288 372 l 288 596 l 378 596 l 378 372 l 602 372 l 602 282 l 378 282 l 378 58 l 288 58 l 288 282 l 64 282 z"},"G":{"x_min":0,"x_max":646,"ha":646,"o":"m 585 226 l 585 99 q 470 -9 337 -9 q 207 -9 119 89 q 31 188 31 328 q 31 471 124 567 q 216 664 337 664 q 426 664 500 604 q 517 621 539 648 l 572 648 l 572 453 l 539 453 q 486 632 337 632 q 287 632 257 609 q 228 587 220 541 q 213 495 213 354 q 213 218 214 151 q 215 83 244 55 q 272 26 329 26 q 374 26 395 41 q 415 57 419 82 q 424 107 424 160 l 424 226 l 336 226 l 336 258 l 636 258 l 636 226 z"},"q":{"x_min":0,"x_max":490,"ha":490,"o":"m 418 363 l 418 -227 l 476 -227 l 476 -257 l 221 -257 l 221 -227 l 285 -227 l 285 41 l 283 41 q 250 -12 182 -12 q 111 -12 67 49 q 22 109 22 193 q 22 281 70 343 q 118 405 186 405 q 250 405 283 344 l 285 344 l 285 405 q 292 405 330 399 q 368 393 402 393 l 476 393 l 476 363 z m 285 127 l 285 265 q 285 313 262 342 q 238 371 215 371 q 190 371 181 343 q 173 314 173 246 l 173 116 q 173 57 182 37 q 190 17 210 17 q 233 17 259 45 q 285 74 285 127 z"},"d":{"x_min":0,"x_max":490,"ha":490,"o":"m 417 664 l 417 29 l 470 29 l 470 0 l 409 0 q 379 0 354 -1 l 298 -6 l 284 -6 l 284 53 l 282 53 q 251 -12 185 -12 q 121 -12 73 50 q 25 111 25 202 q 25 290 74 347 q 123 405 187 405 q 242 405 284 355 l 284 625 l 205 625 l 205 655 l 275 655 q 299 655 355 659 q 411 664 417 664 z m 284 152 l 284 257 q 284 318 261 347 q 239 377 215 377 q 196 377 186 356 q 176 335 176 271 l 176 124 q 176 63 183 42 q 191 21 211 21 q 232 21 258 48 q 284 76 284 152 z"},"1":{"x_min":0,"x_max":490,"ha":490,"o":"m 322 647 l 322 32 l 440 32 l 440 0 l 45 0 l 45 32 l 171 32 l 171 603 l 45 603 l 45 635 l 119 635 q 168 635 243 641 l 304 647 z"},"5":{"x_min":0,"x_max":490,"ha":490,"o":"m 114 509 l 108 369 q 177 391 229 391 q 319 391 388 338 q 457 286 457 196 q 457 107 387 48 q 317 -12 212 -12 q 123 -12 73 30 q 24 72 24 124 q 24 154 45 177 q 66 199 101 199 q 135 199 153 178 q 172 157 172 129 q 172 106 157 89 q 143 71 124 67 q 105 63 105 53 q 105 40 134 30 q 164 20 195 20 q 294 20 294 177 q 294 354 187 354 q 153 354 127 344 l 85 328 q 77 328 76 333 q 74 338 75 355 l 84 608 q 85 630 88 635 q 90 640 104 640 l 363 640 q 375 640 381 643 q 386 646 392 669 l 421 669 q 412 560 392 534 q 372 509 309 509 z"}}}
